<?xml version="1.0" encoding="UTF-8"?>
<svg version="1.1" xmlns="http://www.w3.org/2000/svg" width="1280" height="640">
<path d="M0 0 C422.4 0 844.8 0 1280 0 C1280 211.2 1280 422.4 1280 640 C857.6 640 435.2 640 0 640 C0 428.8 0 217.6 0 0 Z " fill="#20272A" transform="translate(0,0)"/>
<path d="M0 0 C1.32 0 2.64 0 4 0 C6.83080327 8.37445968 8.14437469 14.75033151 4.94921875 23.203125 C3.87961308 25.22789293 2.75707408 26.53652442 1 28 C0.34 28 -0.32 28 -1 28 C-1 28.66 -1 29.32 -1 30 C0.73830078 30.17208984 0.73830078 30.17208984 2.51171875 30.34765625 C33.46104418 34.26813062 62.86437529 58.40078435 81.45703125 82.13671875 C96.22480996 101.74270847 104.86988046 123.90861376 109 148 C109.19335938 149.08410156 109.38671875 150.16820312 109.5859375 151.28515625 C113.73321596 188.49328659 104.24232934 227.6600838 81 257.3125 C60.33456659 282.04528511 35.71761143 300.8337205 4 309 C3.21544434 309.20592773 2.43088867 309.41185547 1.62255859 309.62402344 C-13.53008656 313.44006656 -28.4515968 313.46006428 -44 313 C-44.28423828 313.77424316 -44.56847656 314.54848633 -44.86132812 315.34619141 C-47.27013748 320.96020462 -52.90183252 324.74162886 -57.5 328.625 C-58.05558594 329.10195313 -58.61117187 329.57890625 -59.18359375 330.0703125 C-62.30836591 332.71717833 -65.40454299 335.00103323 -69 337 C-68.5488507 333.66565404 -68.08775875 330.33275294 -67.625 327 C-67.43550781 325.59814453 -67.43550781 325.59814453 -67.2421875 324.16796875 C-66.47210623 318.66188769 -65.45555432 313.3665655 -64 308 C-65.16144531 307.88398438 -66.32289063 307.76796875 -67.51953125 307.6484375 C-91.7957686 304.56929219 -114.7393296 288.31564175 -132 272 C-132.81082031 271.25363281 -133.62164062 270.50726563 -134.45703125 269.73828125 C-160.93819578 244.50819536 -174.73920284 208.13405043 -176 172 C-176.17266191 131.14669004 -161.42086079 94.57721158 -133.1953125 65.1328125 C-127.92663368 59.83803496 -122.06922459 55.33347687 -116 51 C-115.44618652 50.60329102 -114.89237305 50.20658203 -114.32177734 49.79785156 C-89.81193997 32.53169509 -61.99665983 24.51784267 -32.1875 24.875 C-30.70508426 24.88506348 -29.22266181 24.8941833 -27.74023438 24.90234375 C-24.16001326 24.92405925 -20.58005192 24.95839754 -17 25 C-17.02320313 24.38439209 -17.04640625 23.76878418 -17.0703125 23.13452148 C-17.08835937 22.32571533 -17.10640625 21.51690918 -17.125 20.68359375 C-17.14820313 19.88236084 -17.17140625 19.08112793 -17.1953125 18.25561523 C-17 16 -17 16 -15 13.0625 C-12.25757046 11.17707969 -10.93115838 10.60781273 -7.8125 9.9375 C-4.02727417 9.43076971 -4.02727417 9.43076971 -2.625 7.1875 C-2.41875 6.465625 -2.2125 5.74375 -2 5 C-1.443125 3.63875 -1.443125 3.63875 -0.875 2.25 C-0.58625 1.5075 -0.2975 0.765 0 0 Z " fill="#242B2E" transform="translate(417,149)"/>
<path d="M0 0 C86.13 0 172.26 0 261 0 C261 3.3 261 6.6 261 10 C251.1 10 241.2 10 231 10 C231.12375 12.413125 231.2475 14.82625 231.375 17.3125 C231.40899902 18.06829346 231.44299805 18.82408691 231.47802734 19.6027832 C231.69161718 23.21109834 231.95368971 24.93053457 234 28 C235.1446875 26.824375 235.1446875 26.824375 236.3125 25.625 C239.38033076 22.62851414 241.02497161 21.12877733 245.3125 20.5625 C250.2026031 21.14268172 251.55480913 22.55480913 255 26 C257 29 257 29 257 31.75 C255.65663534 36.11593513 253.13457886 38.75997659 250 42 C248.31573191 38.74469192 247.11213866 35.49529294 246 32 C242.535 32.495 242.535 32.495 239 33 C239.33 33.94875 239.66 34.8975 240 35.875 C241.67548281 41.81753974 241.89886344 47.64583385 239.6875 53.4375 C236.50879956 58.26441548 233.77368465 59.82002406 228.28125 61.37890625 C223.39254452 62.30426836 218.51622401 62.45343569 213.5534668 62.66333008 C205.37291969 63.02356647 198.69194816 63.74204073 192 69 C191.38125 69.474375 190.7625 69.94875 190.125 70.4375 C188.81465076 72.03017313 188.81465076 72.03017313 188.5 74.5 C188.77961385 77.15741868 188.77961385 77.15741868 191 78.875 C195.74693605 80.65510102 199.88724314 79.82439995 204.50146484 78.02392578 C207.25280368 76.76729242 209.97126339 75.45573262 212.6875 74.125 C234.76226587 63.73374801 234.76226587 63.73374801 246 67 C252.82489735 70.2117164 256.47603078 76.23119992 259.23046875 83.04296875 C262.43379398 92.35227131 265.28940343 103.31443857 261.9375 113 C259.97988295 116.03114898 258.57473525 117.42350118 255.12109375 118.55078125 C244.6036242 120.77823797 237.1533703 117.34003525 227.84472656 112.87207031 C225.3682141 111.70133149 222.85289753 110.64874229 220.3125 109.625 C219.58675781 109.32851563 218.86101562 109.03203125 218.11328125 108.7265625 C205.89934329 104.52731581 193.5794913 107.16487414 182.125 112.28515625 C170.93930007 117.98922766 162.7050794 125.45043214 156 136 C155.01211515 137.34233427 154.01589234 138.67873526 153 140 C152.03663135 127.66352923 156.6106411 117.72603503 164 108 C170.48011944 100.70811614 180.82113437 94.40225273 190.66015625 93.76171875 C201.63813339 93.47721129 208.89028415 94.69667899 218.25390625 100.71484375 C219.0332251 101.21008545 219.81254395 101.70532715 220.61547852 102.21557617 C222.16987446 103.2158197 223.70928734 104.23986249 225.23022461 105.2902832 C230.80365517 108.93665438 235.36670228 109.99333439 242 109 C247.77591166 107.09285365 251.73166076 104.2491509 255 99 C256.18008712 95.19595447 256.61923475 91.78546021 255.296875 87.97265625 C253.4665541 84.53717298 251.48907659 81.74453829 248 80 C241.5914513 78.69326773 237.44150643 79.36241803 231.375 81.625 C230.59519775 81.89844238 229.81539551 82.17188477 229.01196289 82.45361328 C225.33133277 83.75177487 221.67870131 85.11718622 218.03515625 86.515625 C203.91973161 91.8491405 203.91973161 91.8491405 196.734375 89.1484375 C189.72838878 85.64544439 184.23236648 80.38237345 179.9375 73.875 C178.78978414 70.35533802 178.87605761 68.52168615 180 65 C182.64763677 60.7833933 185.40580724 58.85722686 190 57 C190.99 57 191.98 57 193 57 C192.4946875 56.24976563 191.989375 55.49953125 191.46875 54.7265625 C187.23909284 48.06317404 184.45024497 42.96204419 186 35 C188.17042082 28.83143555 191.67880361 26.13949641 197.4375 23.3125 C204.35255609 20.76484776 210.7005131 20.91098187 218 21 C218 17.37 218 13.74 218 10 C156.95 10 95.9 10 33 10 C33.495 16.435 33.495 16.435 34 23 C35.2065625 22.7834375 36.413125 22.566875 37.65625 22.34375 C39.27077186 22.06214735 40.88535873 21.78091721 42.5 21.5 C43.29148437 21.35691406 44.08296875 21.21382813 44.8984375 21.06640625 C54.57323043 19.40107304 64.55535984 18.97519991 73.375 23.875 C74.24125 24.57625 75.1075 25.2775 76 26 C76.721875 26.556875 77.44375 27.11375 78.1875 27.6875 C83.61476199 34.61193771 83.41001707 43.06013663 83.29296875 51.47265625 C83.28872391 52.6363121 83.28447906 53.79996796 83.28010559 54.99888611 C83.26341785 58.68700058 83.22578319 62.37455286 83.1875 66.0625 C83.1724404 68.57486186 83.15875424 71.08723235 83.14648438 73.59960938 C83.11354677 79.7332622 83.06344658 85.86659092 83 92 C80.87033509 91.07314584 78.74638562 90.1331502 76.625 89.1875 C75.44164062 88.66542969 74.25828125 88.14335937 73.0390625 87.60546875 C70 86 70 86 68 83 C67.05640625 83.50660156 67.05640625 83.50660156 66.09375 84.0234375 C65.2378125 84.46945312 64.381875 84.91546875 63.5 85.375 C62.6646875 85.81585938 61.829375 86.25671875 60.96875 86.7109375 C50.65101141 91.1910082 37.67725091 91.93241894 26.9375 88.4375 C20.60330709 85.70907292 15.87032305 81.74703697 12 76.0625 C10.35581558 71.0271852 10.01306567 67.38135292 12.03125 62.51171875 C17.58217806 52.35043655 26.31693303 46.91712456 37 43 C47.72756078 40.20228066 59.06399604 41.28460829 69 46 C69.41771804 42.66799815 69.41771804 42.66799815 69 39 C65.37050357 35.05025388 61.22123462 33.34513228 55.921875 32.77734375 C43.07156182 32.28801063 30.80596141 36.39767606 19 41 C18.8125 37.625 18.8125 37.625 19 34 C19.99 33.34 20.98 32.68 22 32 C22.50843062 29.68246412 22.50843062 29.68246412 22.51171875 26.9921875 C22.54483154 26.1038623 22.57794434 25.21553711 22.61206055 24.30029297 C22.63695557 23.16994629 22.66185059 22.03959961 22.6875 20.875 C22.790625 17.28625 22.89375 13.6975 23 10 C15.41 10 7.82 10 0 10 C0 6.7 0 3.4 0 0 Z " fill="#FCFCFC" transform="translate(769,268)"/>
<path d="M0 0 C71.28 0 142.56 0 216 0 C216 3.3 216 6.6 216 10 C195.21 10 174.42 10 153 10 C153.33 14.29 153.66 18.58 154 23 C155.134375 22.7834375 156.26875 22.566875 157.4375 22.34375 C158.9582643 22.06212698 160.47910162 21.78089804 162 21.5 C162.74378906 21.35691406 163.48757813 21.21382813 164.25390625 21.06640625 C174.02618612 19.28190297 184.45515975 19.07635696 193.4375 23.8125 C200.10661171 29.50564414 202.00258788 34.73174743 202.79928589 43.18841553 C203.12898957 47.80687382 203.12268017 52.41088278 203.09765625 57.0390625 C203.09553383 58.54936539 203.09553383 58.54936539 203.09336853 60.09017944 C203.08782431 63.26848473 203.07528259 66.44671644 203.0625 69.625 C203.05747778 71.79557189 203.05291614 73.9661449 203.04882812 76.13671875 C203.03787323 81.42450376 203.02119176 86.71224662 203 92 C201.05679887 91.26489756 199.12058409 90.51130951 197.1875 89.75 C196.10855469 89.33234375 195.02960938 88.9146875 193.91796875 88.484375 C190.94518917 86.97211765 189.71111425 85.80982972 188 83 C187.05640625 83.50660156 187.05640625 83.50660156 186.09375 84.0234375 C185.2378125 84.46945312 184.381875 84.91546875 183.5 85.375 C182.6646875 85.81585938 181.829375 86.25671875 180.96875 86.7109375 C170.78835743 91.13137111 156.91082435 92.30139417 146.375 88.375 C140.73352562 85.60785195 135.72172186 82.36736755 132 77.25 C130.33241635 71.83035313 129.70585598 66.85904867 132.1015625 61.56640625 C138.29995617 51.7384719 146.90207883 46.52637872 157.6875 42.6875 C167.2986413 40.65999757 177.95137763 41.05480065 187 45 C187.99 45.66 188.98 46.32 190 47 C189.19890459 40.45748051 189.19890459 40.45748051 185.125 35.5 C174.98277734 30.63173312 162.55151563 32.83426582 152.23046875 36.24609375 C149.78181813 37.12012078 147.36014656 38.04056777 144.93359375 38.9765625 C142 40 142 40 139 40 C138.875 37.125 138.875 37.125 139 34 C139.99 33.01 139.99 33.01 141 32 C141.37051993 29.6754661 141.37051993 29.6754661 141.4140625 26.9921875 C141.44967285 26.1038623 141.4852832 25.21553711 141.52197266 24.30029297 C141.57297119 22.60477295 141.57297119 22.60477295 141.625 20.875 C141.74875 17.28625 141.8725 13.6975 142 10 C128.47 10 114.94 10 101 10 C101.495 15.445 101.495 15.445 102 21 C106.21202507 23.66978677 106.21202507 23.66978677 109.35546875 24.83203125 C115.49236168 27.54241675 119.58988483 32.8408168 122 39 C124.82990449 50.64074188 123.40153392 61.61678182 117.3046875 71.84375 C111.87743873 79.84180083 104.34298997 87.74081745 95 91 C90.42688965 90.87427875 88.32866467 88.75467484 85.29492188 85.64648438 C84.76447266 85.08251953 84.23402344 84.51855469 83.6875 83.9375 C83.13771484 83.36966797 82.58792969 82.80183594 82.02148438 82.21679688 C80.67172635 80.82009075 79.33458475 79.41121163 78 78 C80.53230288 75.46769712 82.48359395 75.22012573 85.9375 74.3125 C96.00364074 71.3361328 106.50234808 65.41998908 112.25 56.375 C113.00023437 55.21097656 113.00023437 55.21097656 113.765625 54.0234375 C116.71711908 49.18522885 116.6862018 44.57841698 116 39 C113.14822791 34.58435289 109.37384959 32.86711288 104.453125 31.44140625 C95.48633596 29.82795536 86.83096969 33.03554133 79.25 37.6875 C72.34739014 44.78184902 69.48960331 52.5248627 67 62 C60.79522136 60.06375702 54.89174281 57.74390859 49 55 C49.52506828 49.78254934 50.7798559 45.77348889 53.0625 41.0625 C53.61035156 39.91910156 54.15820312 38.77570313 54.72265625 37.59765625 C55.14417969 36.74042969 55.56570313 35.88320313 56 35 C50.78324643 31.83449419 44.88924514 32.42234677 39 33 C35.99137478 33.92941607 33.58891869 35.22668338 31 37 C30.113125 37.556875 29.22625 38.11375 28.3125 38.6875 C23.56483342 43.43516658 20.72393136 48.53367849 20.3125 55.3125 C20.96962553 67.69412838 29.55901411 77.1554017 38.3203125 85.10546875 C39.68899798 86.29509681 41.0701939 87.47063623 42.46875 88.625 C44 90 44 90 45 92 C40.44033576 91.39088455 36.74362441 89.54096522 32.75 87.375 C32.08540771 87.01599609 31.42081543 86.65699219 30.73608398 86.28710938 C25.39040799 83.33543727 20.57039824 80.06756464 16 76 C15.29230469 75.38511719 14.58460938 74.77023437 13.85546875 74.13671875 C6.66553851 67.48036403 2.78406084 60.92510776 2.375 51 C2.7417428 41.87107797 6.14884786 34.81731542 12.8359375 28.6015625 C22.96911798 21.10227731 32.62926926 19.04133403 45 20 C50.38768468 21.30303652 55.12707017 23.37643371 59.8125 26.3125 C63.67260391 28.35608442 64.83862442 27.99811591 69 27 C71.02170555 26.22080099 73.02263143 25.38569634 75 24.5 C79.03184786 22.69406814 82.61235453 21.57457262 87 21 C87 17.37 87 13.74 87 10 C58.29 10 29.58 10 0 10 C0 6.7 0 3.4 0 0 Z " fill="#FCFCFC" transform="translate(534,268)"/>
<path d="M0 0 C1.32 0 2.64 0 4 0 C6.83080327 8.37445968 8.14437469 14.75033151 4.94921875 23.203125 C3.87961308 25.22789293 2.75707408 26.53652442 1 28 C0.34 28 -0.32 28 -1 28 C-1 28.66 -1 29.32 -1 30 C0.73830078 30.17208984 0.73830078 30.17208984 2.51171875 30.34765625 C33.46104418 34.26813062 62.86437529 58.40078435 81.45703125 82.13671875 C96.22480996 101.74270847 104.86988046 123.90861376 109 148 C109.19335938 149.08410156 109.38671875 150.16820312 109.5859375 151.28515625 C113.73321596 188.49328659 104.24232934 227.6600838 81 257.3125 C60.33456659 282.04528511 35.71761143 300.8337205 4 309 C3.21544434 309.20592773 2.43088867 309.41185547 1.62255859 309.62402344 C-13.53008656 313.44006656 -28.4515968 313.46006428 -44 313 C-44.28423828 313.77424316 -44.56847656 314.54848633 -44.86132812 315.34619141 C-47.27013748 320.96020462 -52.90183252 324.74162886 -57.5 328.625 C-58.05558594 329.10195313 -58.61117187 329.57890625 -59.18359375 330.0703125 C-62.30836591 332.71717833 -65.40454299 335.00103323 -69 337 C-68.5488507 333.66565404 -68.08775875 330.33275294 -67.625 327 C-67.43550781 325.59814453 -67.43550781 325.59814453 -67.2421875 324.16796875 C-66.47210623 318.66188769 -65.45555432 313.3665655 -64 308 C-65.16144531 307.88398438 -66.32289063 307.76796875 -67.51953125 307.6484375 C-91.7957686 304.56929219 -114.7393296 288.31564175 -132 272 C-132.81082031 271.25363281 -133.62164062 270.50726563 -134.45703125 269.73828125 C-160.93819578 244.50819536 -174.73920284 208.13405043 -176 172 C-176.17266191 131.14669004 -161.42086079 94.57721158 -133.1953125 65.1328125 C-127.92663368 59.83803496 -122.06922459 55.33347687 -116 51 C-115.44618652 50.60329102 -114.89237305 50.20658203 -114.32177734 49.79785156 C-89.81193997 32.53169509 -61.99665983 24.51784267 -32.1875 24.875 C-30.70508426 24.88506348 -29.22266181 24.8941833 -27.74023438 24.90234375 C-24.16001326 24.92405925 -20.58005192 24.95839754 -17 25 C-17.02320313 24.38439209 -17.04640625 23.76878418 -17.0703125 23.13452148 C-17.08835937 22.32571533 -17.10640625 21.51690918 -17.125 20.68359375 C-17.14820313 19.88236084 -17.17140625 19.08112793 -17.1953125 18.25561523 C-17 16 -17 16 -15 13.0625 C-12.25757046 11.17707969 -10.93115838 10.60781273 -7.8125 9.9375 C-4.02727417 9.43076971 -4.02727417 9.43076971 -2.625 7.1875 C-2.41875 6.465625 -2.2125 5.74375 -2 5 C-1.443125 3.63875 -1.443125 3.63875 -0.875 2.25 C-0.58625 1.5075 -0.2975 0.765 0 0 Z M-69 36 C-69.70737305 36.20367187 -70.41474609 36.40734375 -71.14355469 36.6171875 C-103.39908527 46.20067389 -131.74286976 68.13288986 -149 97 C-149.60231445 97.99652588 -149.60231445 97.99652588 -150.21679688 99.01318359 C-155.06915485 107.18630034 -158.81423286 115.56512678 -161.875 124.5625 C-162.14924805 125.36389404 -162.42349609 126.16528809 -162.70605469 126.9909668 C-167.02214999 140.44458435 -168.55956623 153.69525894 -168.4375 167.75 C-168.43479095 168.48779694 -168.43208191 169.22559387 -168.42929077 169.98574829 C-168.36255034 182.01964946 -167.35286002 193.40411846 -164 205 C-163.81808105 205.66402832 -163.63616211 206.32805664 -163.44873047 207.01220703 C-154.29316173 239.86261677 -130.76565787 269.90028575 -101.1875 286.6875 C-82.04221091 297.74263644 -82.04221091 297.74263644 -61.02197266 301.84545898 C-58.06034812 300.60709799 -57.31806439 298.77474771 -55.7578125 296.00390625 C-55.16613281 294.96943359 -54.57445312 293.93496094 -53.96484375 292.86914062 C-53.35769531 291.77794922 -52.75054687 290.68675781 -52.125 289.5625 C-50.91980204 287.43850058 -49.71407788 285.31479964 -48.5078125 283.19140625 C-47.92161133 282.15516113 -47.33541016 281.11891602 -46.73144531 280.05126953 C-45.07971722 277.14048305 -43.42669061 274.23179952 -41.7421875 271.33984375 C-41.28440918 270.54827881 -40.82663086 269.75671387 -40.35498047 268.94116211 C-39 267 -39 267 -36 265 C-37.39567165 268.70346195 -39.07204608 272.08714331 -41.01171875 275.53515625 C-41.90213867 277.12166992 -41.90213867 277.12166992 -42.81054688 278.74023438 C-43.42994141 279.83658203 -44.04933594 280.93292969 -44.6875 282.0625 C-45.28755859 283.13177734 -45.88761719 284.20105469 -46.50585938 285.30273438 C-50.16053997 291.79950815 -53.89341367 298.24081312 -57.72583008 304.63452148 C-59.15807662 306.84566382 -59.15807662 306.84566382 -59 309 C-55.94108572 308.69970886 -54.44894565 308.54165349 -52.4453125 306.12426758 C-52.00960937 305.30595459 -51.57390625 304.4876416 -51.125 303.64453125 C-50.3683606 302.26044067 -50.3683606 302.26044067 -49.59643555 300.84838867 C-49.06961182 299.84654541 -48.54278809 298.84470215 -48 297.8125 C-46.86301966 295.72007955 -45.72362756 293.62896812 -44.58203125 291.5390625 C-43.70538818 289.92306152 -43.70538818 289.92306152 -42.81103516 288.27441406 C-39.35839691 282.03192495 -35.65166515 275.93821556 -31.96289062 269.83325195 C-31.44275391 268.964021 -30.92261719 268.09479004 -30.38671875 267.19921875 C-29.92483154 266.43440186 -29.46294434 265.66958496 -28.98706055 264.8815918 C-27.8451507 263.05894679 -27.8451507 263.05894679 -28 261 C-26.68 260.67 -25.36 260.34 -24 260 C-27.24821011 266.85293109 -30.7718805 273.47258667 -34.625 280 C-35.03830566 280.70278076 -35.45161133 281.40556152 -35.87744141 282.12963867 C-38.31667843 286.24762318 -40.82192816 290.31587341 -43.3828125 294.359375 C-43.94274902 295.2565625 -44.50268555 296.15375 -45.07958984 297.078125 C-46.17648538 298.83264484 -47.28840488 300.57787835 -48.41650391 302.3125 C-51.47547418 306.86048373 -51.47547418 306.86048373 -51.328125 312.078125 C-50.88984375 312.71234375 -50.4515625 313.3465625 -50 314 C-45.94336196 312.64778732 -45.53162899 310.88378161 -43.49609375 307.171875 C-43.17214127 306.5858551 -42.84818878 305.99983521 -42.51441956 305.39605713 C-41.83019238 304.15429508 -41.15044563 302.91005531 -40.47485352 301.66357422 C-39.4464325 299.76647751 -38.40526034 297.87687868 -37.36132812 295.98828125 C-33.31882831 288.66749964 -33.31882831 288.66749964 -30 281 C-28.68 281 -27.36 281 -26 281 C-26.39380859 281.68626465 -26.78761719 282.3725293 -27.19335938 283.07958984 C-28.96667367 286.17554477 -30.73340991 289.27520366 -32.5 292.375 C-33.12003906 293.45523437 -33.74007812 294.53546875 -34.37890625 295.6484375 C-35.25869141 297.1953125 -35.25869141 297.1953125 -36.15625 298.7734375 C-36.70087891 299.72653809 -37.24550781 300.67963867 -37.80664062 301.66162109 C-39.15152123 303.85935721 -39.15152123 303.85935721 -39 306 C-26.29033767 306.35487165 -14.39605585 305.93366463 -2 303 C-1.32437012 302.8443457 -0.64874023 302.68869141 0.04736328 302.52832031 C17.73328968 298.30795874 34.69844467 290.21948558 49 279 C49.52996582 278.58669434 50.05993164 278.17338867 50.60595703 277.74755859 C64.19789624 267.03912412 75.03728935 254.78963255 84 240 C84.35545898 239.42620605 84.71091797 238.85241211 85.07714844 238.26123047 C102.40477212 209.89436485 107.92151389 172.88920834 100.63378906 140.52392578 C95.627977 120.58937838 87.9386209 102.09093944 75 86 C74.39333496 85.23526367 74.39333496 85.23526367 73.77441406 84.45507812 C54.57958684 60.39293956 28.30731779 42.65690534 -2 36 C-4.81850884 35.83551284 -4.81850884 35.83551284 -7 36 C-7.10957031 36.63808594 -7.21914063 37.27617187 -7.33203125 37.93359375 C-7.49058594 38.75988281 -7.64914062 39.58617187 -7.8125 40.4375 C-8.03873047 41.67306641 -8.03873047 41.67306641 -8.26953125 42.93359375 C-8.51058594 43.61550781 -8.75164062 44.29742187 -9 45 C-9.99 45.33 -10.98 45.66 -12 46 C-13.10377291 47.73297304 -13.10377291 47.73297304 -13.9453125 49.91015625 C-14.29553467 50.72758301 -14.64575684 51.54500977 -15.0065918 52.38720703 C-15.3756665 53.27005371 -15.74474121 54.15290039 -16.125 55.0625 C-19.92111425 63.82372798 -24.16677675 72.11927813 -29.02148438 80.33544922 C-29.88118754 81.79788838 -30.71608596 83.27485 -31.546875 84.75390625 C-35.69205838 92.00797716 -40.78234154 98.50066633 -46 105 C-47.01900391 106.27230469 -47.01900391 106.27230469 -48.05859375 107.5703125 C-52.84740803 113.31688963 -52.84740803 113.31688963 -57 114 C-56.36609669 100.24429808 -51.63023326 88.38559381 -45.25390625 76.38134766 C-43.84104446 73.69812065 -42.46655117 70.99690316 -41.09375 68.29296875 C-36.27510824 58.85553673 -31.55476145 49.64275197 -25.23046875 41.109375 C-24.82441406 40.41328125 -24.41835938 39.7171875 -24 39 C-24.33 38.01 -24.66 37.02 -25 36 C-24.0625 33.8125 -24.0625 33.8125 -23 32 C-38.82275579 31.53864343 -53.73444783 31.5097241 -69 36 Z " fill="#F7F7F7" transform="translate(417,149)"/>
<path d="M0 0 C6.93 0 13.86 0 21 0 C26 10.75 26 10.75 26 13 C26.92941406 12.95359375 27.85882813 12.9071875 28.81640625 12.859375 C41.39558348 12.49209975 41.39558348 12.49209975 47 17 C50.77387034 21.07180747 52.10682823 24.12077736 52.19287109 29.61987305 C52.20893402 30.55482101 52.22499695 31.48976898 52.24154663 32.45304871 C52.28617713 36.73358318 52.32707471 41.01396468 52.35009766 45.29467773 C52.36663429 47.54771266 52.39389372 49.80069563 52.43212891 52.0534668 C52.48709657 55.31065956 52.50880423 58.56662364 52.5234375 61.82421875 C52.54610687 62.82345871 52.56877625 63.82269867 52.59213257 64.85221863 C52.57243964 71.42133978 51.60031061 76.1236167 47 81 C40.34151017 87.02899113 30.03791455 85.57828909 21.65625 85.53125 C19.96048765 85.53394858 18.26472681 85.53783403 16.56896973 85.54284668 C13.02515851 85.54872458 9.4817522 85.54023434 5.93798828 85.52148438 C1.41206883 85.49869556 -3.11290162 85.51182789 -7.63878632 85.53577423 C-11.13742123 85.55027873 -14.63583384 85.54560502 -18.13447571 85.53526306 C-19.80251683 85.5326086 -21.47057861 85.53582013 -23.13859558 85.54518127 C-39.31248537 85.61604739 -39.31248537 85.61604739 -46 81 C-51.18614325 75.81385675 -52.22071926 70.19990363 -52.30354309 63.12185669 C-52.30217598 61.82790482 -52.30217598 61.82790482 -52.30078125 60.5078125 C-52.30506638 59.60304169 -52.3093515 58.69827087 -52.31376648 57.76608276 C-52.31949119 55.85822381 -52.32002379 53.95034305 -52.31567383 52.04248047 C-52.31251764 49.14121806 -52.33598317 46.24098004 -52.36132812 43.33984375 C-52.36360186 41.47916794 -52.36430427 39.61848942 -52.36328125 37.7578125 C-52.372491 36.89922638 -52.38170074 36.04064026 -52.39118958 35.15603638 C-52.34426841 28.97222951 -51.63057645 22.88167693 -47.28125 18.1171875 C-46.6934375 17.70726562 -46.105625 17.29734375 -45.5 16.875 C-42.16207764 14.30844626 -40.75490882 11.86079939 -39 8 C-34.94644682 5.29763122 -31.82094744 5.63252324 -27.0625 5.625 C-26.25103516 5.60050781 -25.43957031 5.57601563 -24.60351562 5.55078125 C-20.71830703 5.53165799 -18.66023485 5.52768588 -15.43359375 7.8359375 C-14 10 -14 10 -14 13 C-9.80879369 13.32078483 -9.80879369 13.32078483 -6 12 C-3.37612842 8.15202097 -1.82301712 4.32966567 0 0 Z " fill="#22292C" transform="translate(387,272)"/>
<path d="M0 0 C3.13628599 0.29406839 4.58199147 0.51374518 6.67480469 2.94824219 C7.41585449 4.23456543 7.41585449 4.23456543 8.171875 5.546875 C8.74502441 6.52229248 9.31817383 7.49770996 9.90869141 8.50268555 C10.51632324 9.57429932 11.12395508 10.64591309 11.75 11.75 C12.74192507 13.45162414 13.73386232 15.15324126 14.72634888 16.85453796 C15.77682743 18.66161656 16.81947851 20.47301823 17.86035156 22.28564453 C19.98604394 25.98365862 22.14144108 29.66370094 24.3046875 33.33984375 C25.02476892 34.56402897 25.74482099 35.78823145 26.46484375 37.01245117 C26.8211084 37.61817963 27.17737305 38.22390808 27.54443359 38.84799194 C29.34407503 41.91162125 31.13658847 44.97941362 32.9296875 48.046875 C36.52015148 54.1867559 40.1297678 60.31512996 43.75 66.4375 C44.26224121 67.30584473 44.77448242 68.17418945 45.30224609 69.06884766 C48.06558524 73.74910563 50.84967853 78.41583529 53.65625 83.0703125 C54.25727539 84.07263916 54.85830078 85.07496582 55.47753906 86.10766602 C56.62972113 88.02844556 57.78762067 89.94581106 58.95214844 91.85913086 C59.4680957 92.72159424 59.98404297 93.58405762 60.515625 94.47265625 C60.97227539 95.22812744 61.42892578 95.98359863 61.89941406 96.76196289 C63.09502869 99.19324046 63.66761943 101.31536561 64 104 C62.11211818 105.88788182 58.83650603 105.16739176 56.32470703 105.19287109 C55.27833069 105.20513733 55.27833069 105.20513733 54.21081543 105.21765137 C51.89315665 105.24254508 49.57555923 105.25903064 47.2578125 105.2734375 C46.46812954 105.27876118 45.67844658 105.28408485 44.86483383 105.28956985 C40.68577799 105.31631774 36.5067522 105.33568801 32.32763672 105.35009766 C28.00390326 105.36675709 23.68093037 105.41153995 19.35748482 105.4624691 C16.03924654 105.49607229 12.72119036 105.50766735 9.4027977 105.51332474 C7.8087164 105.5200557 6.21464784 105.53532561 4.62073135 105.55921555 C2.391212 105.59072719 0.16376424 105.59092666 -2.06591797 105.58349609 C-3.33531219 105.59158295 -4.60470642 105.5996698 -5.91256714 105.60800171 C-9 105 -9 105 -10.87625122 102.65200806 C-12.12688427 99.70055754 -12.93665181 96.88160607 -13.625 93.75 C-13.86476563 92.69296875 -14.10453125 91.6359375 -14.3515625 90.546875 C-19.94975875 59.92541602 -14.4778326 27.37559718 0 0 Z " fill="#FDFDFD" transform="translate(272,250)"/>
<path d="M0 0 C0.99 0 1.98 0 3 0 C4.42246201 2.54011073 5.84491559 5.08022617 7.26733398 7.62036133 C8.51931148 9.85595316 9.77143033 12.09146583 11.02368164 14.3269043 C14.28606175 20.15096856 17.54613126 25.9762979 20.80078125 31.8046875 C21.41099121 32.896604 22.02120117 33.98852051 22.64990234 35.11352539 C23.80606696 37.18252635 24.96139721 39.25199387 26.11572266 41.32202148 C26.92275635 42.76557007 26.92275635 42.76557007 27.74609375 44.23828125 C28.26929199 45.17752441 28.79249023 46.11676758 29.33154297 47.08447266 C30.52015012 49.16149148 31.74756529 51.21650422 33.00048828 53.25537109 C33.97671143 54.85179443 33.97671143 54.85179443 34.97265625 56.48046875 C35.574729 57.44235107 36.17680176 58.4042334 36.79711914 59.39526367 C38 62 38 62 37.79907227 64.20581055 C31.39925188 78.57558751 9.42761432 87.8873539 -4 94 C-5.18980469 94.54527344 -6.37960937 95.09054687 -7.60546875 95.65234375 C-21.48348099 101.60006328 -37.70345438 106.21731169 -52.875 106.0625 C-54.60363281 106.04896484 -54.60363281 106.04896484 -56.3671875 106.03515625 C-57.67042969 106.01775391 -57.67042969 106.01775391 -59 106 C-59.84174865 103.6377583 -60.16222463 102.43164593 -59.26586914 100.04663086 C-58.85973389 99.35964111 -58.45359863 98.67265137 -58.03515625 97.96484375 C-57.34232544 96.77242065 -57.34232544 96.77242065 -56.63549805 95.5559082 C-55.85686401 94.25979614 -55.85686401 94.25979614 -55.0625 92.9375 C-54.52471924 92.0199292 -53.98693848 91.1023584 -53.43286133 90.15698242 C-51.63473687 87.09688206 -49.81833197 84.04813081 -48 81 C-46.72069235 78.84153795 -45.44205843 76.68267646 -44.1640625 74.5234375 C-42.15767099 71.13571018 -40.15016568 67.74867337 -38.13696289 64.36499023 C-33.52747267 56.61300998 -28.99161323 48.82095692 -24.5 41 C-19.10364899 31.60857237 -13.64267308 22.25797774 -8.125 12.9375 C-7.77171631 12.3396167 -7.41843262 11.7417334 -7.05444336 11.12573242 C-6.06146492 9.44607783 -5.06595233 7.76792214 -4.0703125 6.08984375 C-3.21590576 4.64919556 -3.21590576 4.64919556 -2.34423828 3.17944336 C-1 1 -1 1 0 0 Z " fill="#FDFDFD" transform="translate(445,343)"/>
<path d="M0 0 C-0.55159173 4.89978752 -2.0341702 8.44594456 -4.359375 12.77734375 C-4.69974792 13.41624039 -5.04012085 14.05513702 -5.39080811 14.71339417 C-6.50194269 16.79283861 -7.62560215 18.86520169 -8.75 20.9375 C-9.53106733 22.39167561 -10.31166173 23.84610533 -11.09179688 25.30078125 C-15.94811374 34.33025992 -20.93563001 43.2795244 -26.03295898 52.17529297 C-31.54962982 61.85194988 -36.73540926 71.70211038 -41.9140625 81.5625 C-46.43177042 90.1484654 -51.13059333 98.60842441 -56 107 C-57.78491211 106.81860352 -57.78491211 106.81860352 -60 106 C-61.71313477 103.82397461 -61.71313477 103.82397461 -63.44140625 100.90234375 C-64.09898926 99.80535156 -64.75657227 98.70835937 -65.43408203 97.578125 C-66.14405291 96.36487475 -66.8535122 95.151325 -67.5625 93.9375 C-68.29963768 92.69342874 -69.03777431 91.4499489 -69.77685547 90.20703125 C-70.94721272 88.23649932 -72.11557486 86.26489936 -73.27856445 84.29000854 C-75.82565852 79.96477986 -78.40983409 75.66436401 -81.02470398 71.379776 C-82.80147541 68.46753974 -84.56799115 65.54915604 -86.33322144 62.62991333 C-87.19329216 61.21180952 -88.05715982 59.79600148 -88.92483521 58.38253784 C-90.14145464 56.39734852 -91.34194188 54.40324024 -92.5390625 52.40625 C-92.90588638 51.81574356 -93.27271027 51.22523712 -93.65065002 50.61683655 C-96.04987937 46.56459326 -96.04987937 46.56459326 -95.79882812 43.72290039 C-87.82046026 26.51527752 -61.27785596 14.40008935 -44.5625 8.1875 C-41.39241229 7.06682764 -38.20484651 6.01664708 -35 5 C-34.19884766 4.7431543 -33.39769531 4.48630859 -32.57226562 4.22167969 C-21.49856807 0.75725784 -11.61497686 -0.7209296 0 0 Z " fill="#FDFDFD" transform="translate(385,187)"/>
<path d="M0 0 C2.97054348 -0.08116592 5.94158516 -0.13195424 8.91271973 -0.1864624 C9.94767578 -0.22448975 10.98263184 -0.26251709 12.0489502 -0.30169678 C14.54148742 -0.33111746 16.78723292 -0.32480363 19.22521973 0.1885376 C21.26818848 2.37994385 21.26818848 2.37994385 22.22521973 5.1885376 C22.52686035 6.05092041 22.82850098 6.91330322 23.13928223 7.80181885 C23.3738916 8.69256104 23.60850098 9.58330322 23.85021973 10.5010376 C24.08998535 11.38404541 24.32975098 12.26705322 24.57678223 13.17681885 C28.98229588 33.638572 27.2516029 57.04637541 22.22521973 77.1885376 C21.93638916 78.37503906 21.93638916 78.37503906 21.64172363 79.58551025 C19.34583463 88.78249251 16.30512633 97.10607451 11.22521973 105.1885376 C9.90521973 105.1885376 8.58521973 105.1885376 7.22521973 105.1885376 C5.85998535 103.76177979 5.85998535 103.76177979 4.63146973 101.7354126 C4.16523193 100.98203613 3.69899414 100.22865967 3.21862793 99.45245361 C2.72580322 98.62286133 2.23297852 97.79326904 1.72521973 96.9385376 C1.19823486 96.07736328 0.67125 95.21618896 0.1282959 94.32891846 C-1.52125273 91.62432609 -3.14969119 88.90788296 -4.77478027 86.1885376 C-5.72605425 84.61138346 -6.67785558 83.03454723 -7.63024902 81.45806885 C-9.5786047 78.22466346 -11.51692696 74.98545288 -13.45056152 71.7432251 C-17.31766522 65.26768956 -21.23300122 58.8215844 -25.14978027 52.3760376 C-25.50999268 51.78309906 -25.87020508 51.19016052 -26.24133301 50.57925415 C-31.86507867 41.32258769 -37.49549502 32.06996932 -43.13366699 22.82208252 C-44.17192202 21.1180628 -45.20659464 19.41185368 -46.23718262 17.70318604 C-47.31382801 15.94239728 -48.41534359 14.19668617 -49.53503418 12.46295166 C-50.0949707 11.58091064 -50.65490723 10.69886963 -51.23181152 9.7901001 C-51.74332764 9.00199951 -52.25484375 8.21389893 -52.78186035 7.4019165 C-53.96462372 4.76534589 -53.58479623 3.87149693 -52.77478027 1.1885376 C-40.37806869 0.88985994 -27.98119773 0.61118999 -15.58323669 0.36929321 C-10.38804797 0.26686325 -5.19401831 0.1504305 0 0 Z " fill="#FDFDFD" transform="translate(487.7747802734375,276.81146240234375)"/>
<path d="M0 0 C39.6 0 79.2 0 120 0 C118.87551921 6.74688477 118.87551921 6.74688477 116.65625 10.37890625 C116.15996094 11.20374512 115.66367187 12.02858398 115.15234375 12.87841797 C114.33443359 14.20703857 114.33443359 14.20703857 113.5 15.5625 C112.32194538 17.51373683 111.14491755 19.46559385 109.96875 21.41796875 C109.33324219 22.46774902 108.69773437 23.5175293 108.04296875 24.59912109 C105.846395 28.2557024 103.68311486 31.930284 101.53125 35.61328125 C101.15480347 36.25755569 100.77835693 36.90183014 100.39050293 37.56562805 C99.25987395 39.50181654 98.12983827 41.43835002 97 43.375 C92.75974803 50.64304364 88.51255499 57.89625132 84 65 C57.50092883 61.44200848 34.24351662 44.7112991 16 26 C15.33484375 25.37996094 14.6696875 24.75992187 13.984375 24.12109375 C8.09176774 18.51910828 2.53235485 12.39522243 -1 5 C-0.67 3.35 -0.34 1.7 0 0 Z " fill="#FEFEFE" transform="translate(274,380)"/>
<path d="M0 0 C23.28201432 3.8500206 44.18464674 16.84223039 61 33 C62.39035005 34.19391527 63.78598206 35.38171449 65.1875 36.5625 C71.49896552 42.11658966 76.38252311 48.31950112 81 55.3125 C81.41048584 55.92359619 81.82097168 56.53469238 82.24389648 57.16430664 C83.24637843 58.72547808 84.13297034 60.35972994 85 62 C84.67 62.99 84.34 63.98 84 65 C44.4 65 4.8 65 -36 65 C-37 62 -37 62 -35.94287109 59.62182617 C-35.39195801 58.68830322 -34.84104492 57.75478027 -34.2734375 56.79296875 C-33.65992432 55.74197998 -33.04641113 54.69099121 -32.41430664 53.6081543 C-31.74133545 52.47933838 -31.06836426 51.35052246 -30.375 50.1875 C-29.68589364 49.01589445 -28.99766977 47.84376941 -28.31030273 46.67114258 C-26.55460515 43.68116803 -24.78720565 40.69828778 -23.01715088 37.71679688 C-21.46523337 35.0973948 -19.92625323 32.4704439 -18.38671875 29.84375 C-2.10220739 2.10220739 -2.10220739 2.10220739 0 0 Z " fill="#FEFEFE" transform="translate(415,191)"/>
<path d="M0 0 C6.93 0 13.86 0 21 0 C26 10.75 26 10.75 26 13 C26.92941406 12.95359375 27.85882813 12.9071875 28.81640625 12.859375 C41.39558348 12.49209975 41.39558348 12.49209975 47 17 C50.77387034 21.07180747 52.10682823 24.12077736 52.19287109 29.61987305 C52.20893402 30.55482101 52.22499695 31.48976898 52.24154663 32.45304871 C52.28617713 36.73358318 52.32707471 41.01396468 52.35009766 45.29467773 C52.36663429 47.54771266 52.39389372 49.80069563 52.43212891 52.0534668 C52.48709657 55.31065956 52.50880423 58.56662364 52.5234375 61.82421875 C52.54610687 62.82345871 52.56877625 63.82269867 52.59213257 64.85221863 C52.57243964 71.42133978 51.60031061 76.1236167 47 81 C40.34151017 87.02899113 30.03791455 85.57828909 21.65625 85.53125 C19.96048765 85.53394858 18.26472681 85.53783403 16.56896973 85.54284668 C13.02515851 85.54872458 9.4817522 85.54023434 5.93798828 85.52148438 C1.41206883 85.49869556 -3.11290162 85.51182789 -7.63878632 85.53577423 C-11.13742123 85.55027873 -14.63583384 85.54560502 -18.13447571 85.53526306 C-19.80251683 85.5326086 -21.47057861 85.53582013 -23.13859558 85.54518127 C-39.31248537 85.61604739 -39.31248537 85.61604739 -46 81 C-51.18614325 75.81385675 -52.22071926 70.19990363 -52.30354309 63.12185669 C-52.30217598 61.82790482 -52.30217598 61.82790482 -52.30078125 60.5078125 C-52.30506638 59.60304169 -52.3093515 58.69827087 -52.31376648 57.76608276 C-52.31949119 55.85822381 -52.32002379 53.95034305 -52.31567383 52.04248047 C-52.31251764 49.14121806 -52.33598317 46.24098004 -52.36132812 43.33984375 C-52.36360186 41.47916794 -52.36430427 39.61848942 -52.36328125 37.7578125 C-52.372491 36.89922638 -52.38170074 36.04064026 -52.39118958 35.15603638 C-52.34426841 28.97222951 -51.63057645 22.88167693 -47.28125 18.1171875 C-46.6934375 17.70726562 -46.105625 17.29734375 -45.5 16.875 C-42.16207764 14.30844626 -40.75490882 11.86079939 -39 8 C-34.94644682 5.29763122 -31.82094744 5.63252324 -27.0625 5.625 C-26.25103516 5.60050781 -25.43957031 5.57601563 -24.60351562 5.55078125 C-20.71830703 5.53165799 -18.66023485 5.52768588 -15.43359375 7.8359375 C-14 10 -14 10 -14 13 C-9.80879369 13.32078483 -9.80879369 13.32078483 -6 12 C-3.37612842 8.15202097 -1.82301712 4.32966567 0 0 Z M-44 23 C-45.84366941 25.81798586 -46.25387444 27.98424044 -46.2746582 31.32202148 C-46.28419022 32.16647324 -46.29372223 33.01092499 -46.30354309 33.88096619 C-46.30263168 34.78520828 -46.30172028 35.68945038 -46.30078125 36.62109375 C-46.30506638 37.55800552 -46.3093515 38.4949173 -46.31376648 39.46022034 C-46.3195038 41.43969923 -46.32001445 43.4191992 -46.31567383 45.39868164 C-46.31251509 48.42305564 -46.33597628 51.44645011 -46.36132812 54.47070312 C-46.36360134 56.3958321 -46.36430451 58.3209637 -46.36328125 60.24609375 C-46.372491 61.14831161 -46.38170074 62.05052948 -46.39118958 62.98008728 C-46.35575863 67.80147475 -46.21763853 71.1520888 -43 75 C-39.65472231 78.27533271 -37.33997222 79.4586534 -32.62149048 79.54211426 C-31.938237 79.53401733 -31.25498352 79.52592041 -30.55102539 79.51757812 C-29.45247978 79.52809204 -29.45247978 79.52809204 -28.33174133 79.53881836 C-25.91998952 79.55636847 -23.50941922 79.54478598 -21.09765625 79.53125 C-19.41523515 79.53394609 -17.73281556 79.53782948 -16.05039978 79.54284668 C-12.52734517 79.5487379 -9.00469677 79.54019226 -5.48168945 79.52148438 C-0.97454203 79.49871228 3.53165167 79.51180873 8.038764 79.53577423 C11.51244741 79.55025757 14.98590631 79.54561437 18.45959663 79.53526306 C20.12091752 79.53260185 21.78225905 79.53584417 23.44355583 79.54518127 C25.77012643 79.5553872 28.09517321 79.53979094 30.42163086 79.51757812 C31.44347473 79.52972351 31.44347473 79.52972351 32.48596191 79.54211426 C37.4088879 79.45542054 40.211159 78.07975934 44 75 C46.08622123 71.87066816 46.2584594 71.10221729 46.30639648 67.53198242 C46.32238388 66.63062057 46.33837128 65.72925873 46.35484314 64.80058289 C46.36288719 63.34275139 46.36288719 63.34275139 46.37109375 61.85546875 C46.38012222 60.85292557 46.3891507 59.85038239 46.39845276 58.81745911 C46.41296601 56.69498688 46.42184466 54.57246981 46.42553711 52.44995117 C46.43741749 49.21000234 46.48658005 45.97196775 46.53710938 42.73242188 C46.54657549 40.66928012 46.55380962 38.60612667 46.55859375 36.54296875 C46.57812607 35.57715378 46.59765839 34.61133881 46.61778259 33.61625671 C46.58778244 29.12038533 46.48354458 25.983836 43.59008789 22.40356445 C39.62329012 18.72243296 36.87945082 18.84252479 31.69213867 18.82299805 C30.93909958 18.81642685 30.18606049 18.80985565 29.41020203 18.80308533 C26.91278997 18.78334018 24.41543807 18.77168701 21.91796875 18.76171875 C20.63927131 18.75560546 20.63927131 18.75560546 19.33474159 18.74936867 C14.82269151 18.72850263 10.31067189 18.7142033 5.79858398 18.70483398 C1.13778861 18.693769 -3.52252941 18.65936986 -8.18315601 18.61966228 C-11.76654448 18.59351793 -15.34981884 18.5851441 -18.9332943 18.58155251 C-20.65129508 18.5766808 -22.36929056 18.56505014 -24.08719826 18.54651451 C-26.49316862 18.52216889 -28.89789927 18.52307921 -31.30395508 18.5300293 C-32.01219421 18.51721924 -32.72043335 18.50440918 -33.45013428 18.49121094 C-38.24213826 18.54160538 -40.6774585 19.55870594 -44 23 Z " fill="#F5F5F5" transform="translate(387,272)"/>
<path d="M0 0 C8.37838377 5.83581066 14.83658562 13.85149141 17 24 C18.46448686 40.74362978 15.21508624 54.18135942 4.30859375 67.29296875 C3.54675781 68.18628906 2.78492188 69.07960938 2 70 C-0.29674382 68.73769041 -2.58714709 67.46574267 -4.875 66.1875 C-5.52597656 65.83107422 -6.17695312 65.47464844 -6.84765625 65.10742188 C-10.06597903 63.29918897 -11.9196783 62.12048255 -14 59 C-13.26910156 58.28199219 -12.53820312 57.56398438 -11.78515625 56.82421875 C-2.21691193 47.12177745 4.97469563 37.29052279 5.25 23.25 C5.16487749 16.91310217 4.13291637 11.31065941 -0.25 6.5625 C-6.74812324 2.87038452 -12.8161551 2.17994988 -20 4 C-32.04231366 9.28513913 -37.59862888 18.32650364 -42.25 30.1875 C-43.73022943 35.73836035 -44.13831685 41.30304152 -44.31640625 47.02734375 C-44.35830078 48.31318359 -44.40019531 49.59902344 -44.44335938 50.92382812 C-44.483157 52.26171625 -44.52286951 53.59960691 -44.5625 54.9375 C-44.60576654 56.30274562 -44.64938321 57.66798018 -44.69335938 59.03320312 C-44.79901104 62.35536119 -44.89996822 65.67766797 -45 69 C-51.93 65.535 -51.93 65.535 -59 62 C-59 41.21 -59 20.42 -59 -1 C-54.05 -1 -49.1 -1 -44 -1 C-43.67 1.97 -43.34 4.94 -43 8 C-42.443125 7.54109375 -41.88625 7.0821875 -41.3125 6.609375 C-28.66988377 -3.55597184 -15.32238096 -8.19260254 0 0 Z " fill="#F9F9F9" transform="translate(922,292)"/>
<path d="M0 0 C15.59103963 -1.49913843 15.59103963 -1.49913843 20.73046875 1.69921875 C22.92436911 4.34853955 24.45180212 6.92626079 26 10 C26.30969727 10.58362305 26.61939453 11.16724609 26.93847656 11.76855469 C31.01711629 19.49714829 34.2305686 27.41145218 36 36 C36.17313217 36.82041779 36.34626434 37.64083557 36.52464294 38.4861145 C37.16690227 43.23375776 37.13077037 47.90167585 37.11352539 52.68701172 C37.11367142 53.75102707 37.11381744 54.81504242 37.1139679 55.91130066 C37.11327294 59.41745056 37.10550005 62.92354691 37.09765625 66.4296875 C37.09579059 68.86491873 37.09436738 71.30015034 37.09336853 73.73538208 C37.08955502 80.13701417 37.07973467 86.53862348 37.06866455 92.94024658 C37.05842537 99.47578625 37.05386554 106.01132961 37.04882812 112.546875 C37.03811137 125.36459304 37.02124185 138.18229531 37 151 C31.52067211 149.45454854 26.88570819 146.84456788 22 144 C21.99635437 142.71341995 21.99270874 141.4268399 21.98895264 140.10127258 C21.95189898 127.93492054 21.8940132 115.76881918 21.81609726 103.60265827 C21.77670612 97.34894626 21.74447656 91.0953733 21.72900391 84.84155273 C21.71378237 78.79835563 21.6792391 72.75554103 21.63169098 66.71251488 C21.61693381 64.41506475 21.60896226 62.11756 21.60811615 59.82006264 C21.67109808 42.51786776 21.67109808 42.51786776 17 26 C16.73047516 25.34255798 16.46095032 24.68511597 16.18325806 24.00775146 C12.68993383 16.13097236 7.57086182 9.67531807 1.94140625 3.265625 C0 1 0 1 0 0 Z " fill="#F8F8F8" transform="translate(730,209)"/>
<path d="M0 0 C6.48531273 3.63507975 11.49487745 8.83605255 13.75 16 C14.77913515 24.87222827 14.2986814 32.74403202 8.75 40 C2.88794924 45.67295235 -2.86948266 48.28466905 -11.0625 48.375 C-18.36917066 48.23771391 -22.79440177 47.16180243 -28.1796875 42.234375 C-33.62681505 36.49341899 -36.29607945 30.97653418 -36.6875 23.0625 C-36.41957801 15.13444476 -32.85122441 8.47392386 -27.25 3 C-18.68551059 -2.23945235 -9.46041119 -4.31730863 0 0 Z " fill="#3D4345" transform="translate(398.25,298)"/>
<path d="M0 0 C3.0625 2.0625 3.0625 2.0625 5 5 C6.2347285 13.01665637 2.57485458 18.0933444 -1.5625 24.75 C-2.17158203 25.75804687 -2.78066406 26.76609375 -3.40820312 27.8046875 C-4.63909924 29.84185314 -5.88084126 31.87250458 -7.13330078 33.89648438 C-8.41275326 36.02366197 -9.63816581 38.18401294 -10.81591797 40.36914062 C-11.40131348 41.44873047 -11.98670898 42.52832031 -12.58984375 43.640625 C-13.10281006 44.62063477 -13.61577637 45.60064453 -14.14428711 46.61035156 C-16 49 -16 49 -19.08813477 50.02246094 C-22.1599921 50.67962903 -22.1599921 50.67962903 -23.16430664 53.22753906 C-23.44008545 54.14245117 -23.71586426 55.05736328 -24 56 C-26.05238599 59.99595528 -28.22174435 63.92663879 -30.39477539 67.85791016 C-31.43938476 69.75342001 -32.47065028 71.65581917 -33.50195312 73.55859375 C-34.16585491 74.76346848 -34.83054122 75.96791133 -35.49609375 77.171875 C-36.09607178 78.2659668 -36.6960498 79.36005859 -37.31420898 80.48730469 C-39 83 -39 83 -42 84 C-43.21484375 81.88671875 -43.21484375 81.88671875 -44 79 C-42.75390625 76.14453125 -42.75390625 76.14453125 -40.5625 72.8125 C-39.72327232 71.49688469 -38.88762438 70.17898211 -38.0546875 68.859375 C-37.57741211 68.10978516 -37.10013672 67.36019531 -36.60839844 66.58789062 C-33.68939151 61.89124924 -30.94423554 57.09215377 -28.18746948 52.29916382 C-27.20542858 50.59363687 -26.21811806 48.89114765 -25.23071289 47.1887207 C-21.96704954 41.53711463 -18.83571523 35.87857339 -16 30 C-17.95894361 30.11306697 -17.95894361 30.11306697 -20 31 C-21.16245054 33.29851199 -21.16245054 33.29851199 -22 36 C-22.84403682 37.62055739 -23.71825913 39.2256416 -24.6171875 40.81640625 C-25.39557983 42.19687134 -25.39557983 42.19687134 -26.18969727 43.60522461 C-28.52256659 47.69881379 -30.8568173 51.79147084 -33.20556641 55.87597656 C-34.38222479 57.92448277 -35.55395524 59.97582919 -36.72021484 62.03027344 C-38.31899625 64.84184273 -39.93749167 67.6410274 -41.5625 70.4375 C-42.29412354 71.73312866 -42.29412354 71.73312866 -43.04052734 73.05493164 C-43.50281738 73.83989014 -43.96510742 74.62484863 -44.44140625 75.43359375 C-45.03997437 76.47084595 -45.03997437 76.47084595 -45.65063477 77.52905273 C-46.09592529 78.01446533 -46.54121582 78.49987793 -47 79 C-48.32 79 -49.64 79 -51 79 C-49.73658381 74.8575148 -48.19295694 71.30952345 -45.98828125 67.5859375 C-45.09786133 66.07193359 -45.09786133 66.07193359 -44.18945312 64.52734375 C-43.57005859 63.48707031 -42.95066406 62.44679688 -42.3125 61.375 C-41.71244141 60.35792969 -41.11238281 59.34085937 -40.49414062 58.29296875 C-39.89408203 57.27589844 -39.29402344 56.25882812 -38.67578125 55.2109375 C-37.77786865 53.68871582 -37.77786865 53.68871582 -36.86181641 52.13574219 C-35.56851815 49.95751996 -34.26256419 47.78678217 -32.94677734 45.62207031 C-32.29789551 44.54280273 -31.64901367 43.46353516 -30.98046875 42.3515625 C-30.38516357 41.37268066 -29.7898584 40.39379883 -29.17651367 39.38525391 C-28.5941394 38.20455322 -28.5941394 38.20455322 -28 37 C-28.33 36.34 -28.66 35.68 -29 35 C-29.33 34.34 -29.66 33.68 -30 33 C-28.98364258 30.78857422 -28.98364258 30.78857422 -27.39453125 28.0546875 C-26.82283203 27.05953125 -26.25113281 26.064375 -25.66210938 25.0390625 C-25.05173828 23.99492187 -24.44136719 22.95078125 -23.8125 21.875 C-22.62966166 19.83179832 -21.44863582 17.78754616 -20.26953125 15.7421875 C-19.70484131 14.76338623 -19.14015137 13.78458496 -18.55834961 12.77612305 C-17.19154128 10.34122136 -15.91051342 7.89227808 -14.6796875 5.38671875 C-11.23935289 -1.54995591 -7.14425429 -2.0466636 0 0 Z " fill="#F3F4F4" transform="translate(409,379)"/>
<path d="M0 0 C3.125 2.1875 3.125 2.1875 5 4 C2.92963526 10.69960725 -2.25539171 13.4615505 -8 17 C-19.80186695 23.10018577 -32.17083704 25.94455571 -45.08203125 22.14453125 C-47 21 -47 21 -48.40234375 18.66015625 C-49 16 -49 16 -48.234375 13.7890625 C-44.04858324 7.68661873 -39.39640517 3.70529593 -33 0 C-32.37480469 -0.36222656 -31.74960937 -0.72445313 -31.10546875 -1.09765625 C-21.94702305 -5.38756001 -9.01564343 -4.14372842 0 0 Z " fill="#22292C" transform="translate(719,325)"/>
<path d="M0 0 C1.890625 1.38671875 1.890625 1.38671875 3 3 C2.863062 5.56631964 2.21461453 6.74246256 0.57421875 8.7109375 C-9.79567373 17.85705385 -21.45019311 22.37007463 -35.1875 22.3125 C-35.96802734 22.32861328 -36.74855469 22.34472656 -37.55273438 22.36132812 C-42.21999433 22.36528678 -45.1649303 21.94146123 -49 19 C-50 18 -50 18 -50.2890625 15.7421875 C-49.69690981 10.12473904 -45.06515301 6.55700888 -41 3 C-28.21948674 -5.83359005 -14.03554316 -6.85723432 0 0 Z " fill="#21282B" transform="translate(836,326)"/>
<path d="M0 0 C1.9451 2.91765 2.45276317 4.62537285 3 8 C3.66 8 4.32 8 5 8 C5 5.36 5 2.72 5 0 C9.33333333 0 13.66666667 0 18 0 C17.01 0.495 17.01 0.495 16 1 C16.020625 2.19625 16.04125 3.3925 16.0625 4.625 C16.06882571 8.18004869 15.69888875 11.50555624 15 15 C15.99 15 16.98 15 18 15 C18 13.68 18 12.36 18 11 C18.66 11 19.32 11 20 11 C20 13.97 20 16.94 20 20 C19.34 20 18.68 20 18 20 C18 18.68 18 17.36 18 16 C17.01 16 16.02 16 15 16 C15 17.32 15 18.64 15 20 C17.97 20 20.94 20 24 20 C23.01 19.01 22.02 18.02 21 17 C21.42105263 12.57894737 21.42105263 12.57894737 23 11 C25.375 10.625 25.375 10.625 28 11 C29.8125 13.5 29.8125 13.5 31 16 C31.33 14.68 31.66 13.36 32 12 C31.34 11.67 30.68 11.34 30 11 C32.31 11 34.62 11 37 11 C36.01 11.33 35.02 11.66 34 12 C34 14.64 34 17.28 34 20 C35.98 20 37.96 20 40 20 C39.484375 19.608125 38.96875 19.21625 38.4375 18.8125 C37 17 37 17 37.25 14.375 C38 12 38 12 39 11 C40.66617115 10.95936168 42.33388095 10.957279 44 11 C45.125 13.25 45.125 13.25 46 16 C45.125 18.3125 45.125 18.3125 44 20 C45.98 20 47.96 20 50 20 C49.484375 19.608125 48.96875 19.21625 48.4375 18.8125 C47 17 47 17 47.25 14.375 C48 12 48 12 49 11 C50.85287502 10.92773498 52.70833878 10.9161878 54.5625 10.9375 C55.57441406 10.94652344 56.58632813 10.95554687 57.62890625 10.96484375 C58.41136719 10.97644531 59.19382812 10.98804688 60 11 C60.2165625 12.11375 60.2165625 12.11375 60.4375 13.25 C60.90031411 15.51264678 61.43986518 17.7594607 62 20 C67.28 20 72.56 20 78 20 C78 17.03 78 14.06 78 11 C78.66 11 79.32 11 80 11 C80 12.32 80 13.64 80 15 C80.99 14.67 81.98 14.34 83 14 C83.33 13.01 83.66 12.02 84 11 C85.670625 11.2784375 85.670625 11.2784375 87.375 11.5625 C90.82568861 12.31680657 90.82568861 12.31680657 93 11 C92.76603516 11.93972656 92.76603516 11.93972656 92.52734375 12.8984375 C92.33269531 13.71570313 92.13804687 14.53296875 91.9375 15.375 C91.74027344 16.18710937 91.54304688 16.99921875 91.33984375 17.8359375 C90.77890681 20.04161284 90.77890681 20.04161284 92 22 C79.92612203 22.02314421 67.85224931 22.04092573 55.77835369 22.05181217 C50.1722962 22.05703643 44.56625385 22.06412584 38.96020508 22.07543945 C33.55265465 22.0862845 28.14511882 22.09228029 22.73755836 22.09487724 C20.67184024 22.09672856 18.60612293 22.10034359 16.540411 22.10573006 C13.65281812 22.1129619 10.76528598 22.11399003 7.87768555 22.11352539 C7.01885269 22.11712067 6.16001984 22.12071594 5.27516174 22.12442017 C1.92951361 22.1185736 -0.80350411 22.06549863 -4 21 C-5.33106622 20.65772583 -6.66400079 20.32248257 -8 20 C-9.08892712 17.16878949 -8.96109941 15.83467249 -8.25 12.8125 C-7.8375 11.884375 -7.425 10.95625 -7 10 C-6.01 9.67 -5.02 9.34 -4 9 C-2.76049958 6.90861544 -2.76049958 6.90861544 -1.8125 4.4375 C-1.46832031 3.61121094 -1.12414062 2.78492188 -0.76953125 1.93359375 C-0.51558594 1.29550781 -0.26164062 0.65742188 0 0 Z " fill="#313739" transform="translate(300,358)"/>
<path d="M0 0 C3.00197464 1.80118478 4.45166366 2.90332732 6 6 C6.43489641 12.52344615 5.77892451 16.4531106 1.62890625 21.75 C-3.41874309 27.36656905 -9.92779006 31.41293866 -17.53125 32.29296875 C-21.89194513 32.09673747 -23.65032836 31.30596268 -27 28.375 C-29.25826884 24.56417133 -30.07641294 22.43195076 -30 18 C-27.68912282 10.22155721 -22.03345123 5.60054724 -15.25 1.625 C-10.33254122 -0.65639413 -5.31103026 -0.84777009 0 0 Z " fill="#23292C" transform="translate(994,295)"/>
<path d="M0 0 C3.27584369 1.96550622 4.72058689 3.05429407 5.8125 6.75 C5.874375 7.4925 5.93625 8.235 6 9 C5.67 6.69 5.34 4.38 5 2 C8.8718417 3.25573244 11.02838671 4.36808079 13 8 C13.125 10.6875 13.125 10.6875 13 13 C13.33 13.33 13.66 13.66 14 14 C14.39166362 18.6216307 14.46458258 21.07083484 12.375 25.25 C9.07772086 29.06790216 6.53593084 31.6296256 1.37890625 32.3828125 C-4.58081146 32.62540617 -8.41742428 32.13549516 -13 28 C-16.62463587 24.1824936 -17.54954293 21.82024383 -17.5 16.5625 C-17.31386118 11.24253236 -16.89641218 7.89641218 -13 4 C-8.94067141 0.88424416 -5.17529492 -0.90005129 0 0 Z " fill="#282E31" transform="translate(389,305)"/>
<path d="M0 0 C2.02045442 0.60183749 4.02111039 1.27306096 6 2 C7 4 7 4 6.43017578 5.80908203 C5.94266846 6.89745361 5.94266846 6.89745361 5.4453125 8.0078125 C5.08219971 8.8220166 4.71908691 9.6362207 4.3449707 10.47509766 C3.94238037 11.34956543 3.53979004 12.2240332 3.125 13.125 C2.71660889 14.02138184 2.30821777 14.91776367 1.88745117 15.84130859 C-1.6923202 23.57427324 -5.68845846 31.00217913 -10.02148438 38.33544922 C-10.88118754 39.79788838 -11.71608596 41.27485 -12.546875 42.75390625 C-17.96802302 52.24091529 -24.9909265 60.65408004 -32 69 C-34.14473733 64.71052533 -31.13424875 58.54273879 -29.73486328 54.09667969 C-27.80524128 48.59116682 -25.00300796 43.49533773 -22.25390625 38.36523438 C-20.83618376 35.6909946 -19.46380058 32.99583888 -18.09375 30.296875 C-5.38981828 5.38981828 -5.38981828 5.38981828 0 0 Z " fill="#242B2E" transform="translate(396,189)"/>
<path d="M0 0 C6.48531273 3.63507975 11.49487745 8.83605255 13.75 16 C14.77913515 24.87222827 14.2986814 32.74403202 8.75 40 C2.88794924 45.67295235 -2.86948266 48.28466905 -11.0625 48.375 C-18.36917066 48.23771391 -22.79440177 47.16180243 -28.1796875 42.234375 C-33.62681505 36.49341899 -36.29607945 30.97653418 -36.6875 23.0625 C-36.41957801 15.13444476 -32.85122441 8.47392386 -27.25 3 C-18.68551059 -2.23945235 -9.46041119 -4.31730863 0 0 Z M-23.25 5 C-24.549375 5.8353125 -24.549375 5.8353125 -25.875 6.6875 C-30.37404111 11.0681453 -32.86113324 16.66125863 -33.33984375 22.93359375 C-33.03313171 29.98797062 -29.92392458 35.31067821 -25.12890625 40.3359375 C-20.30963165 44.6041516 -15.12689432 45.64038791 -8.87109375 45.40234375 C-3.05617839 44.50974124 1.80445211 42.25336277 5.67578125 37.76953125 C10.13810322 31.24112226 11.57003826 25.88408214 10.75 18 C8.70789101 11.00024086 3.95680885 6.64505363 -2.0703125 2.85546875 C-8.60754242 0.28978174 -17.53016438 0.99611507 -23.25 5 Z " fill="#F4F4F4" transform="translate(398.25,298)"/>
<path d="M0 0 C1.32 0.33 2.64 0.66 4 1 C2.41817427 6.72248721 -0.4001162 11.47911198 -3.375 16.5625 C-4.46372857 18.44390227 -5.55226479 20.32541586 -6.640625 22.20703125 C-7.19814453 23.16689941 -7.75566406 24.12676758 -8.33007812 25.11572266 C-10.44707658 28.77218753 -12.53743356 32.44344149 -14.62597656 36.11621094 C-16.59320165 39.57263182 -18.57105034 43.02289819 -20.55078125 46.47216797 C-21.52439647 48.17041797 -22.49571788 49.86998489 -23.46484375 51.57080078 C-24.84425962 53.9889841 -26.23326688 56.40139015 -27.625 58.8125 C-28.0389502 59.54243164 -28.45290039 60.27236328 -28.87939453 61.02441406 C-29.86321357 62.71699706 -30.92395566 64.36449834 -32 66 C-32.66 66 -33.32 66 -34 66 C-35.21484375 63.88671875 -35.21484375 63.88671875 -36 61 C-34.75390625 58.14453125 -34.75390625 58.14453125 -32.5625 54.8125 C-31.71279942 53.48129675 -30.86672721 52.14777361 -30.0234375 50.8125 C-29.54487305 50.06097656 -29.06630859 49.30945313 -28.57324219 48.53515625 C-25.47450266 43.54178082 -22.60233634 38.41457782 -19.6875 33.3125 C-13.26219151 22.12424481 -6.6920946 11.03050933 0 0 Z " fill="#282E31" transform="translate(401,397)"/>
<path d="M0 0 C1.32 0.33 2.64 0.66 4 1 C2.37163446 7.18156599 -0.94225509 12.31109137 -4.1875 17.75 C-5.45126506 19.89018571 -6.71425791 22.03082756 -7.9765625 24.171875 C-8.63430664 25.28498047 -9.29205078 26.39808594 -9.96972656 27.54492188 C-12.03068933 31.04326259 -14.06211031 34.55819871 -16.0859375 38.078125 C-16.42001114 38.65906921 -16.75408478 39.24001343 -17.09828186 39.83856201 C-18.71265138 42.64758413 -20.32494097 45.4577928 -21.9362793 48.26855469 C-23.09231034 50.27885112 -24.25397653 52.28592198 -25.42236328 54.2890625 C-26.43217342 56.02427324 -27.42688154 57.76841651 -28.40185547 59.5234375 C-29.68359375 61.75 -29.68359375 61.75 -32 65 C-33.32 65 -34.64 65 -36 65 C-34.36614944 58.74920398 -30.9698112 53.55637246 -27.6875 48.0625 C-26.41790185 45.91356863 -25.14970801 43.76380706 -23.8828125 41.61328125 C-23.23731445 40.51838379 -22.59181641 39.42348633 -21.92675781 38.29541016 C-18.91559733 33.14530319 -15.98592879 27.95026392 -13.0625 22.75 C-8.77287944 15.12743685 -4.45260365 7.52894799 0 0 Z " fill="#292F32" transform="translate(394,393)"/>
<path d="M0 0 C2.46996424 2.46996424 2.32331778 3.33897333 2.375 6.75 C2.23988168 13.00147427 -0.08082909 16.08082909 -4.4375 20.4375 C-7 22 -7 22 -9.625 21.875 C-12 21 -12 21 -15 19 C-15.77529286 12.13312034 -15.77529286 12.13312034 -13.375 8.625 C-11 7 -11 7 -8.0625 6.0625 C-4.36552861 4.77987727 -2.58088097 2.88451403 0 0 Z " fill="#252C2F" transform="translate(418,156)"/>
<path d="M0 0 C4.33333333 0 8.66666667 0 13 0 C12.01 0.495 12.01 0.495 11 1 C11.020625 2.19625 11.04125 3.3925 11.0625 4.625 C11.06882571 8.18004869 10.69888875 11.50555624 10 15 C10.99 15 11.98 15 13 15 C13 13.68 13 12.36 13 11 C13.66 11 14.32 11 15 11 C15 13.97 15 16.94 15 20 C14.34 20 13.68 20 13 20 C13 18.68 13 17.36 13 16 C12.01 16 11.02 16 10 16 C10 17.32 10 18.64 10 20 C9.34 20 8.68 20 8 20 C7.67 18.68 7.34 17.36 7 16 C5.68 16.33 4.36 16.66 3 17 C3 17.99 3 18.98 3 20 C2.34 20 1.68 20 1 20 C1 17.03 1 14.06 1 11 C2.32 10.67 3.64 10.34 5 10 C4.34 9.01 3.68 8.02 3 7 C2.67 7.66 2.34 8.32 2 9 C1.34 9 0.68 9 0 9 C0 6.03 0 3.06 0 0 Z " fill="#626769" transform="translate(305,358)"/>
<path d="M0 0 C1.27423828 -0.00193359 1.27423828 -0.00193359 2.57421875 -0.00390625 C3.91419922 0.00189453 3.91419922 0.00189453 5.28125 0.0078125 C6.17457031 0.00394531 7.06789063 0.00007813 7.98828125 -0.00390625 C8.83777344 -0.00261719 9.68726563 -0.00132812 10.5625 0 C11.34689453 0.00112793 12.13128906 0.00225586 12.93945312 0.00341797 C14.78125 0.1328125 14.78125 0.1328125 15.78125 1.1328125 C15.96875 4.0703125 15.96875 4.0703125 15.78125 7.1328125 C13.17082788 9.74323462 11.27003815 9.42128038 7.70898438 9.45507812 C6.92845703 9.45185547 6.14792969 9.44863281 5.34375 9.4453125 C4.17875977 9.46948242 4.17875977 9.46948242 2.99023438 9.49414062 C-2.74375473 9.49907946 -2.74375473 9.49907946 -4.98071289 7.77416992 C-6.21875 6.1328125 -6.21875 6.1328125 -5.96875 3.5078125 C-4.76329876 -0.30944977 -3.79262263 0.00545365 0 0 Z " fill="#F4F4F4" transform="translate(412.21875,294.8671875)"/>
<path d="M0 0 C0.495 0.99 0.495 0.99 1 2 C0.12646484 3.98925781 0.12646484 3.98925781 -1.2890625 6.453125 C-1.81250244 7.37222656 -2.33594238 8.29132813 -2.87524414 9.23828125 C-3.45266357 10.23214844 -4.03008301 11.22601563 -4.625 12.25 C-5.20950928 13.26964844 -5.79401855 14.28929687 -6.39624023 15.33984375 C-12.0622088 25.19185807 -17.83522312 34.98287106 -23.67236328 44.734375 C-24.89443511 46.81985249 -26.04049809 48.93319355 -27.18359375 51.0625 C-29 54 -29 54 -32 55 C-30.59439272 51.27723453 -28.9098758 47.85753161 -26.98046875 44.37890625 C-26.37614014 43.28819824 -25.77181152 42.19749023 -25.14916992 41.07373047 C-24.49565569 39.90311047 -23.84175758 38.7327047 -23.1875 37.5625 C-22.85763092 36.97084045 -22.52776184 36.37918091 -22.18789673 35.76959229 C-17.43845618 27.25601399 -12.61735889 18.78567004 -7.6875 10.375 C-6.87091919 8.97229858 -6.87091919 8.97229858 -6.0378418 7.54125977 C-5.53422119 6.68975342 -5.03060059 5.83824707 -4.51171875 4.9609375 C-4.07303467 4.21634277 -3.63435059 3.47174805 -3.18237305 2.70458984 C-2 1 -2 1 0 0 Z " fill="#303638" transform="translate(415,391)"/>
<path d="M0 0 C0.66 0.33 1.32 0.66 2 1 C-3.6070232 11.91737851 -9.5954622 22.56743298 -15.81347656 33.1484375 C-20.64752619 41.37503425 -25.36415247 49.66038011 -30 58 C-30.99 58 -31.98 58 -33 58 C-31.63982097 54.385578 -30.02038074 51.11387007 -28.0859375 47.7734375 C-27.4969165 46.75362793 -26.90789551 45.73381836 -26.30102539 44.68310547 C-25.66543701 43.59143066 -25.02984863 42.49975586 -24.375 41.375 C-23.72072021 40.24594238 -23.06644043 39.11688477 -22.39233398 37.95361328 C-15.02005804 25.24844776 -7.51770619 12.61948617 0 0 Z " fill="#2F3538" transform="translate(393,384)"/>
<path d="M0 0 C3.625 0.375 3.625 0.375 6.125 2 C7.625 4.375 7.625 4.375 7.5 7.4375 C6.625 10.375 6.625 10.375 4.625 13.375 C0.43139551 12.70402328 -2.77834352 10.5191606 -6.375 8.375 C-5.36029412 0.59558824 -5.36029412 0.59558824 0 0 Z " fill="#262D30" transform="translate(403.375,381.625)"/>
<path d="M0 0 C1.79244141 0.01740234 1.79244141 0.01740234 3.62109375 0.03515625 C5.41740234 0.04869141 5.41740234 0.04869141 7.25 0.0625 C8.17683594 0.07410156 9.10367187 0.08570313 10.05859375 0.09765625 C11.04859375 2.40765625 12.03859375 4.71765625 13.05859375 7.09765625 C6.78859375 7.09765625 0.51859375 7.09765625 -5.94140625 7.09765625 C-3.61553338 0.12003763 -3.61553338 0.12003763 0 0 Z " fill="#282E30" transform="translate(393.94140625,277.90234375)"/>
<path d="M0 0 C0.66 0 1.32 0 2 0 C2 1.32 2 2.64 2 4 C2.99 3.67 3.98 3.34 5 3 C5.33 2.01 5.66 1.02 6 0 C7.11375 0.185625 8.2275 0.37125 9.375 0.5625 C12.82568861 1.31680657 12.82568861 1.31680657 15 0 C14.69201674 1.48011371 14.378482 2.95907325 14.0625 4.4375 C13.88847656 5.26121094 13.71445312 6.08492188 13.53515625 6.93359375 C13 9 13 9 12 10 C10.16884117 10.09851171 8.33380067 10.12972629 6.5 10.125 C5.4996875 10.12757813 4.499375 10.13015625 3.46875 10.1328125 C1 10 1 10 0 9 C-0.07179964 7.48071962 -0.08392007 5.95832518 -0.0625 4.4375 C-0.05347656 3.61121094 -0.04445313 2.78492188 -0.03515625 1.93359375 C-0.02355469 1.29550781 -0.01195312 0.65742188 0 0 Z " fill="#5C6163" transform="translate(378,369)"/>
<path d="M0 0 C0.86625 0.12375 1.7325 0.2475 2.625 0.375 C4.4375 2.875 4.4375 2.875 5.625 5.375 C5.955 4.055 6.285 2.735 6.625 1.375 C5.965 1.045 5.305 0.715 4.625 0.375 C6.935 0.375 9.245 0.375 11.625 0.375 C10.635 0.705 9.645 1.035 8.625 1.375 C8.645625 2.674375 8.66625 3.97375 8.6875 5.3125 C8.70899454 6.66665633 8.69648199 8.02256083 8.625 9.375 C7.625 10.375 7.625 10.375 3.8125 10.6875 C0.69332404 10.64261977 -0.23638663 10.46628198 -2.9375 8.6875 C-4.375 6.375 -4.375 6.375 -4.1875 3.6875 C-3.06174699 0.48343373 -3.06174699 0.48343373 0 0 Z " fill="#D9DADB" transform="translate(325.375,368.625)"/>
<path d="M0 0 C1.51400391 0.01740234 1.51400391 0.01740234 3.05859375 0.03515625 C4.07050781 0.04417969 5.08242188 0.05320312 6.125 0.0625 C7.29869141 0.07990234 7.29869141 0.07990234 8.49609375 0.09765625 C9.12109375 2.47265625 9.12109375 2.47265625 9.49609375 5.09765625 C8.83609375 5.75765625 8.17609375 6.41765625 7.49609375 7.09765625 C6.83609375 6.76765625 6.17609375 6.43765625 5.49609375 6.09765625 C5.49609375 7.08765625 5.49609375 8.07765625 5.49609375 9.09765625 C-0.89465874 9.45939696 -0.89465874 9.45939696 -3.50390625 7.91015625 C-4.50390625 6.09765625 -4.50390625 6.09765625 -4.25390625 3.47265625 C-3.19664879 0.12467429 -3.19664879 0.12467429 0 0 Z " fill="#727678" transform="translate(351.50390625,368.90234375)"/>
<path d="M0 0 C3.1875 0.4375 3.1875 0.4375 5.5625 3.4375 C6.09875 4.4275 6.635 5.4175 7.1875 6.4375 C4.8775 8.4175 2.5675 10.3975 0.1875 12.4375 C-2.2875 11.4475 -2.2875 11.4475 -4.8125 10.4375 C-4.67200482 8.95781676 -4.52495174 7.47875484 -4.375 6 C-4.29378906 5.17628906 -4.21257812 4.35257812 -4.12890625 3.50390625 C-3.64300358 0.33054189 -3.26052935 0.50719345 0 0 Z " fill="#282F32" transform="translate(358.8125,460.5625)"/>
<path d="M0 0 C3.87460798 1.25662962 5.9860255 2.39604563 8 6 C8 7.32 8 8.64 8 10 C7.1028125 10.3403125 7.1028125 10.3403125 6.1875 10.6875 C3.43648112 12.33811133 2.47515363 14.1972081 1 17 C-0.32 16.34 -1.64 15.68 -3 15 C-2.5438815 12.44573642 -2.13431809 11.14981633 -0.375 9.1875 C1.65024401 5.96552089 0.76174242 3.60096418 0 0 Z " fill="#070707" transform="translate(394,307)"/>
<path d="M0 0 C1.48831242 0.00667405 2.97660807 0.01863442 4.46484375 0.03515625 C5.22345703 0.03966797 5.98207031 0.04417969 6.76367188 0.04882812 C8.64326246 0.06064945 10.52281274 0.07858547 12.40234375 0.09765625 C12.96484375 2.03515625 12.96484375 2.03515625 13.40234375 4.09765625 C12.40234375 5.09765625 12.40234375 5.09765625 9.0234375 5.1953125 C7.62887298 5.18863994 6.23432632 5.17668157 4.83984375 5.16015625 C4.12892578 5.15564453 3.41800781 5.15113281 2.68554688 5.14648438 C0.92444362 5.13466489 -0.83661661 5.11672888 -2.59765625 5.09765625 C-3.25765625 3.77765625 -3.91765625 2.45765625 -4.59765625 1.09765625 C-3.59765625 0.09765625 -3.59765625 0.09765625 0 0 Z " fill="#A5A7A7" transform="translate(412.59765625,296.90234375)"/>
<path d="M0 0 C3.465 1.485 3.465 1.485 7 3 C6.47731534 5.76276177 5.89130413 8.3260876 5 11 C1.08788267 9.84414715 -1.8745041 8.64465038 -5 6 C-3.35 4.02 -1.7 2.04 0 0 Z " fill="#252B2E" transform="translate(401,178)"/>
<path d="M0 0 C0.78375 0.04125 1.5675 0.0825 2.375 0.125 C3.035 1.775 3.695 3.425 4.375 5.125 C2.625 7.1875 2.625 7.1875 0.375 9.125 C-1.875 8.875 -1.875 8.875 -3.625 8.125 C-4.25 5.25 -4.25 5.25 -4.625 2.125 C-2.625 0.125 -2.625 0.125 0 0 Z " fill="#E0E1E1" transform="translate(341.625,368.875)"/>
<path d="M0 0 C0.7734375 0.07605469 1.546875 0.15210938 2.34375 0.23046875 C4.84746175 0.9062895 5.85166485 1.85246044 7.5 3.8125 C7.17 4.4725 6.84 5.1325 6.5 5.8125 C5.94570313 5.65007812 5.39140625 5.48765625 4.8203125 5.3203125 C2.27480661 4.76321525 -0.02117688 4.67972739 -2.625 4.6875 C-3.49382812 4.68492187 -4.36265625 4.68234375 -5.2578125 4.6796875 C-7.53719449 4.66712066 -7.53719449 4.66712066 -9.5 5.8125 C-7.438128 1.05433386 -5.20040402 -0.59804646 0 0 Z " fill="#ECECEC" transform="translate(404.5,378.1875)"/>
<path d="M0 0 C1.32 0 2.64 0 4 0 C3.938125 1.11375 3.87625 2.2275 3.8125 3.375 C3.874375 4.57125 3.93625 5.7675 4 7 C4.99 7.66 5.98 8.32 7 9 C7 9.66 7 10.32 7 11 C3.625 11.125 3.625 11.125 0 11 C-0.66 10.34 -1.32 9.68 -2 9 C-1.7578125 6.8359375 -1.7578125 6.8359375 -1.125 4.375 C-0.92132813 3.55773437 -0.71765625 2.74046875 -0.5078125 1.8984375 C-0.34023438 1.27195312 -0.17265625 0.64546875 0 0 Z " fill="#979A9B" transform="translate(293,368)"/>
<path d="M0 0 C2.31 0 4.62 0 7 0 C6.01 0.33 5.02 0.66 4 1 C4.020625 2.299375 4.04125 3.59875 4.0625 4.9375 C4.08399454 6.29165633 4.07148199 7.64756083 4 9 C3 10 3 10 1.15234375 10.09765625 C-0.8984375 10.06510417 -2.94921875 10.03255208 -5 10 C-3.68 9.34 -2.36 8.68 -1 8 C-1 7.34 -1 6.68 -1 6 C-0.34 5.67 0.32 5.34 1 5 C1.65213292 2.97536745 1.65213292 2.97536745 2 1 C1.34 0.67 0.68 0.34 0 0 Z " fill="#717577" transform="translate(330,369)"/>
<path d="M0 0 C1.65 0 3.3 0 5 0 C5.625 2.3125 5.625 2.3125 6 5 C5.01 6.485 5.01 6.485 4 8 C3.67 7.67 3.34 7.34 3 7 C2.67 7.66 2.34 8.32 2 9 C1.34 9 0.68 9 0 9 C0 6.03 0 3.06 0 0 Z " fill="#A2A5A6" transform="translate(305,358)"/>
<path d="M0 0 C0.33 0.99 0.66 1.98 1 3 C-1 5 -1 5 -4.9140625 5.1953125 C-6.48449351 5.18200376 -8.05486221 5.15813602 -9.625 5.125 C-10.42679687 5.11597656 -11.22859375 5.10695313 -12.0546875 5.09765625 C-14.03658523 5.07406223 -16.01832981 5.03819065 -18 5 C-18 4.01 -18 3.02 -18 2 C-16.86820312 2.02320313 -15.73640625 2.04640625 -14.5703125 2.0703125 C-13.08854825 2.08906901 -11.60677688 2.10726934 -10.125 2.125 C-9.00544922 2.15013672 -9.00544922 2.15013672 -7.86328125 2.17578125 C-5.90805539 2.1933959 -3.95257979 2.10320189 -2 2 C-1.34 1.34 -0.68 0.68 0 0 Z " fill="#DBDCDD" transform="translate(427,299)"/>
<path d="M0 0 C4.43334023 0.08340582 7.49103895 0.80652597 11.25 3.3125 C11.58 3.9725 11.91 4.6325 12.25 5.3125 C10.93 4.9825 9.61 4.6525 8.25 4.3125 C8.58 6.2925 8.91 8.2725 9.25 10.3125 C8.26 10.8075 8.26 10.8075 7.25 11.3125 C7.12625 9.9203125 7.12625 9.9203125 7 8.5 C6.49927173 5.34910829 6.49927173 5.34910829 4.75 3.4375 C0.97592959 1.73916832 -2.67484671 2.077395 -6.75 2.3125 C-4.26997407 -0.16752593 -3.42167487 0.01555307 0 0 Z " fill="#C8C9C9" transform="translate(386.75,303.6875)"/>
<path d="M0 0 C0.66 0 1.32 0 2 0 C2 1.32 2 2.64 2 4 C2.99 4 3.98 4 5 4 C5 2.68 5 1.36 5 0 C5.66 0 6.32 0 7 0 C7 2.97 7 5.94 7 9 C6.34 9 5.68 9 5 9 C5 7.68 5 6.36 5 5 C4.01 5 3.02 5 2 5 C2 6.32 2 7.64 2 9 C1.34 9 0.68 9 0 9 C0 6.03 0 3.06 0 0 Z " fill="#BEC0C0" transform="translate(313,369)"/>
<path d="M0 0 C1.65 0 3.3 0 5 0 C5.33 1.65 5.66 3.3 6 5 C4.68 5.33 3.36 5.66 2 6 C2 6.99 2 7.98 2 9 C1.34 9 0.68 9 0 9 C0 6.03 0 3.06 0 0 Z " fill="#A5A8A9" transform="translate(306,369)"/>
<path d="M0 0 C2.87184723 2.87184723 2.70422318 5.50481657 3.046875 9.4453125 C2.98391535 12.87661332 1.86719461 15.16186419 0 18 C-0.33 17.34 -0.66 16.68 -1 16 C-0.67 15.34 -0.34 14.68 0 14 C0.23434712 12.0870598 0.23434712 12.0870598 0.25 10 C0.27578125 9.29875 0.3015625 8.5975 0.328125 7.875 C0.21984375 7.25625 0.1115625 6.6375 0 6 C-0.99 5.34 -1.98 4.68 -3 4 C-2.01 4 -1.02 4 0 4 C0 2.68 0 1.36 0 0 Z " fill="#C4C4C5" transform="translate(402,313)"/>
<path d="M0 0 C2.475 0.495 2.475 0.495 5 1 C4.67 2.98 4.34 4.96 4 7 C3.01 6.67 2.02 6.34 1 6 C0.67 6.99 0.34 7.98 0 9 C0 6.03 0 3.06 0 0 Z " fill="#B4B6B7" transform="translate(356,369)"/>
<path d="M0 0 C0.66 0 1.32 0 2 0 C2 1.32 2 2.64 2 4 C5.27773504 3.24849977 5.27773504 3.24849977 7 0 C7 2.97 7 5.94 7 9 C6.67 7.68 6.34 6.36 6 5 C4.68 5 3.36 5 2 5 C2 6.32 2 7.64 2 9 C1.34 9 0.68 9 0 9 C0 6.03 0 3.06 0 0 Z " fill="#CCCDCE" transform="translate(378,369)"/>
<path d="M0 0 C2.475 0.495 2.475 0.495 5 1 C4.67 2.65 4.34 4.3 4 6 C3.01 6 2.02 6 1 6 C0.67 6.99 0.34 7.98 0 9 C0 6.03 0 3.06 0 0 Z " fill="#ABADAE" transform="translate(372,369)"/>
<path d="M0 0 C2.0625 0.4375 2.0625 0.4375 4 1 C3.67 2.65 3.34 4.3 3 6 C1.35 5.67 -0.3 5.34 -2 5 C-1.125 1.125 -1.125 1.125 0 0 Z " fill="#262D2F" transform="translate(340,370)"/>
<path d="M0 0 C2.0625 0.4375 2.0625 0.4375 4 1 C4.33 2.32 4.66 3.64 5 5 C3.35 5.33 1.7 5.66 0 6 C-0.38218767 4.34385343 -0.71395102 2.67542976 -1 1 C-0.67 0.67 -0.34 0.34 0 0 Z " fill="#293032" transform="translate(324,370)"/>
<path d="M0 0 C1.98 0 3.96 0 6 0 C4.68 0.33 3.36 0.66 2 1 C2 1.99 2 2.98 2 4 C2.99 4.33 3.98 4.66 5 5 C4.01 5 3.02 5 2 5 C2 5.99 2 6.98 2 8 C3.32 8.33 4.64 8.66 6 9 C4.02 9 2.04 9 0 9 C0 6.03 0 3.06 0 0 Z " fill="#D0D1D1" transform="translate(286,358)"/>
<path d="M0 0 C0.66 0.33 1.32 0.66 2 1 C1.875 2.875 1.875 2.875 1 5 C-1.9375 6.1875 -1.9375 6.1875 -5 7 C-5.99 7.495 -5.99 7.495 -7 8 C-5.50902342 4.2047869 -3.24299151 2.38957269 0 0 Z " fill="#E7E8E8" transform="translate(374,299)"/>
<path d="M0 0 C2.31 0 4.62 0 7 0 C7.33 1.32 7.66 2.64 8 4 C5.69 4 3.38 4 1 4 C0.67 2.68 0.34 1.36 0 0 Z " fill="#242B2E" transform="translate(418,297)"/>
<path d="M0 0 C1.99097846 2.98646769 2.94124926 5.59687262 4 9 C3.34 9 2.68 9 2 9 C2 8.34 2 7.68 2 7 C0.35 7.66 -1.3 8.32 -3 9 C-2.01 6.03 -1.02 3.06 0 0 Z " fill="#CFD0D1" transform="translate(300,358)"/>
<path d="M0 0 C1.65 0 3.3 0 5 0 C4.01 0.33 3.02 0.66 2 1 C2 1.99 2 2.98 2 4 C2.99 4.33 3.98 4.66 5 5 C4.01 5 3.02 5 2 5 C2 6.32 2 7.64 2 9 C1.34 9 0.68 9 0 9 C0 6.03 0 3.06 0 0 Z " fill="#C9CACA" transform="translate(267,358)"/>
<path d="M0 0 C1.32 0 2.64 0 4 0 C4 1.65 4 3.3 4 5 C2.35 5 0.7 5 -1 5 C-0.67 3.35 -0.34 1.7 0 0 Z " fill="#2B3234" transform="translate(380,374)"/>
<path d="M0 0 C1.98 0.495 1.98 0.495 4 1 C3.67 2.32 3.34 3.64 3 5 C1.68 4.67 0.36 4.34 -1 4 C-0.67 2.68 -0.34 1.36 0 0 Z " fill="#E8E302" transform="translate(378,327)"/>
<path d="M0 0 C0.99 0.33 1.98 0.66 3 1 C3 2.32 3 3.64 3 5 C1.35 4.67 -0.3 4.34 -2 4 C-1.34 2.68 -0.68 1.36 0 0 Z " fill="#E41E26" transform="translate(387,329)"/>
<path d="M0 0 C2.0625 0.4375 2.0625 0.4375 4 1 C4 1.99 4 2.98 4 4 C2.68 4.33 1.36 4.66 0 5 C-0.5625 3.0625 -0.5625 3.0625 -1 1 C-0.67 0.67 -0.34 0.34 0 0 Z " fill="#020202" transform="translate(378,311)"/>
<path d="M0 0 C0.99 0.33 1.98 0.66 3 1 C3 1.66 3 2.32 3 3 C3.66 3 4.32 3 5 3 C5.33 2.34 5.66 1.68 6 1 C6 1.99 6 2.98 6 4 C4.02 4 2.04 4 0 4 C0 2.68 0 1.36 0 0 Z " fill="#474A4B" transform="translate(409,297)"/>
<path d="M0 0 C0.99 0 1.98 0 3 0 C2.67 1.65 2.34 3.3 2 5 C1.01 4.67 0.02 4.34 -1 4 C-0.67 2.68 -0.34 1.36 0 0 Z " fill="#94D044" transform="translate(375,319)"/>
<path d="M0 0 C1.98 0.495 1.98 0.495 4 1 C4 1.99 4 2.98 4 4 C3.01 4.33 2.02 4.66 1 5 C0.34 4.01 -0.32 3.02 -1 2 C-0.67 1.34 -0.34 0.68 0 0 Z " fill="#02ACDF" transform="translate(386,308)"/>
</svg>
